{"title":"Superstore S02E00 Olympics 1080p WEB-DL HEVC DD5.1 x265","uid":15610867,"size":375651329,"categoryP":"video","categoryS":"hd___tv_shows","magnet":"?xt=urn:btih:1f324b02408412264f180bccf3e517dd81cfff68&amp;dn=Superstore+S02E00+Olympics+1080p+WEB-DL+HEVC+DD5.1+x265&amp;tr=udp%3A%2F%2Ftracker.leechers-paradise.org%3A6969&amp;tr=udp%3A%2F%2Fzer0day.ch%3A1337&amp;tr=udp%3A%2F%2Fopen.demonii.com%3A1337&amp;tr=udp%3A%2F%2Ftracker.coppersurfer.tk%3A6969&amp;tr=udp%3A%2F%2Fexodus.desync.com%3A6969","seeders":4,"leechers":1,"uploader":"nayhtut","files":1,"time":1471781708,"description":"[Screenshots]\r\n \nhttps://s14.postimg.org/xdb674axd/Superstore_S02_E00_Olympics_1080p_WEB_DL_HEVC_DD5.jpg \nhttps://s14.postimg.org/lcpq6e3ip/Superstore_S02_E00_Olympics_1080p_WEB_DL_HEVC_DD5.jpg \nhttps://s14.postimg.org/5sicfute9/Superstore_S02_E00_Olympics_1080p_WEB_DL_HEVC_DD5.jpg\r\n\r\n \r\nSource: Superstore S02E00 Olympics 1080p WEB-DL DD5.1 H.264-BTN (850 MB)\r\n\r\n\r\n__--__--__--__--__--__--__--__--__--__--__--__--__--\r\n\r\n\r\nComplete name                            : Superstore.S02E00.Olympics.1080p.WEB-DL.HEVC.DD5.1.x265.mkv\r\nFormat                                   : Matroska\r\nFormat version                           : Version 4 / Version 2\r\nFile size                                : 358 MiB\r\nDuration                                 : 21mn 28s\r\nOverall bit rate                         : 2 332 Kbps\r\nWriting application                      : Lavf57.25.100\r\nWriting library                          : Lavf57.25.100\r\n\r\nVideo\r\n\r\nID                                       : 1\r\nFormat                                   : V_MPEGH/ISO/HEVC\r\nCodec ID                                 : V_MPEGH/ISO/HEVC\r\nDuration                                 : 21mn 28s\r\nBit rate                                 : 1 901 Kbps\r\nWidth                                    : 1 920 pixels\r\nHeight                                   : 1 080 pixels\r\nDisplay aspect ratio                     : 16:9\r\nFrame rate                               : 25.000 fps\r\nBits/(Pixel*Frame)                       : 0.037\r\nStream size                              : 292 MiB (82%)\r\nWriting library                          : Lavc57.48.101 libx265\r\nLanguage                                 : English\r\nDefault                                  : Yes\r\nForced                                   : No\r\nDURATION                                 : 00:21:28.931000000\r\nNUMBER_OF_FRAMES                         : 30902\r\nNUMBER_OF_BYTES                          : 829385246\r\n_STATISTICS_WRITING_APP                  : mkvmerge v9.3.1 ('Mask Machine') 64bit\r\n_STATISTICS_WRITING_DATE_UTC             : 2016-08-20 08:17:02\r\n_STATISTICS_TAGS                         : BPS DURATION NUMBER_OF_FRAMES NUMBER_OF_BYTES\r\n\r\nAudio\r\n\r\nID                                       : 2\r\nFormat                                   : AC-3\r\nFormat/Info                              : Audio Coding 3\r\nMode extension                           : CM (complete main)\r\nFormat settings, Endianness              : Big\r\nCodec ID                                 : A_AC3\r\nDuration                                 : 21mn 28s\r\nBit rate mode                            : Constant\r\nBit rate                                 : 384 Kbps\r\nChannel(s)                               : 6 channels\r\nChannel positions                        : Front: L C R, Side: L R, LFE\r\nSampling rate                            : 48.0 KHz\r\nBit depth                                : 16 bits\r\nCompression mode                         : Lossy\r\nStream size                              : 59.0 MiB (16%)\r\nWriting library                          : Lavc57.24.102 ac3\r\nLanguage                                 : English\r\nDefault                                  : Yes\r\nForced                                   : No\r\nDURATION                                 : 00:21:28.863000000\r\nNUMBER_OF_FRAMES                         : 40275\r\nNUMBER_OF_BYTES                          : 61862400\r\n_STATISTICS_WRITING_APP                  : mkvmerge v9.3.1 ('Mask Machine') 64bit\r\n_STATISTICS_WRITING_DATE_UTC             : 2016-08-20 08:17:02\r\n_STATISTICS_TAGS                         : BPS DURATION NUMBER_OF_FRAMES NUMBER_OF_BYTES\r\n\r\nText\r\n\r\nID                                       : 3\r\nFormat                                   : ASS\r\nCodec ID                                 : S_TEXT/ASS\r\nCodec ID/Info                            : Advanced Sub Station Alpha\r\nCompression mode                         : Lossless\r\nWriting library                          : Lavc57.48.101 ssa\r\nLanguage                                 : English\r\nDefault                                  : No\r\nForced                                   : No\r\nDURATION                                 : 00:21:21.730000000\r\nNUMBER_OF_FRAMES                         : 535\r\nNUMBER_OF_BYTES                          : 17501\r\n_STATISTICS_WRITING_APP                  : mkvmerge v9.3.1 ('Mask Machine') 64bit\r\n_STATISTICS_WRITING_DATE_UTC             : 2016-08-20 08:17:02\r\n_STATISTICS_TAGS                         : BPS DURATION NUMBER_OF_FRAMES NUMBER_OF_BYTES\r\n\r\n__--__--__--__--__--__--__--__--__--__--__--__--__--\r\n\r\n\r\nIMDb: http://www.imdb.com/title/tt4477976\r\n\r\nAfter adding torrent with magnet link,\r\n\r\nplease add this  following trackers list to the torrent for better seeds.\r\n\r\n\r\nudp://tracker.coppersurfer.tk:6969/announce\r\n\r\nudp://tracker.opentrackr.org:1337/announce\r\n \nhttp://tracker.baravik.org:6970/announce\r\n \nhttp://tracker2.wasabii.com.tw:6969/announce\r\n\r\nudp://9.rarbg.me:2710/announce\r\n\r\n\r\n__--__--__--__--__--__--__--__--__--__--__--__--__--\r\n\r\n\r\nEnjoy!","torrent":{"xt":"urn:btih:1f324b02408412264f180bccf3e517dd81cfff68","amp;dn":"Superstore+S02E00+Olympics+1080p+WEB-DL+HEVC+DD5.1+x265","amp;tr":["udp%3A%2F%2Ftracker.leechers-paradise.org%3A6969","udp%3A%2F%2Fzer0day.ch%3A1337","udp%3A%2F%2Fopen.demonii.com%3A1337","udp%3A%2F%2Ftracker.coppersurfer.tk%3A6969","udp%3A%2F%2Fexodus.desync.com%3A6969"],"infoHash":"1f324b02408412264f180bccf3e517dd81cfff68","infoHashBuffer":{"type":"Buffer","data":[31,50,75,2,64,132,18,38,79,24,11,204,243,229,23,221,129,207,255,104]},"announce":[],"urlList":[]}}